# xmcd
#
# Track frame offsets:
#   150
#   13660
#   36052
#   52854
#   69625
#   81810
#   99136
#   119441
#   136756
#   148380
#   166885
#   185153
#   202436
#   214719
#   232463
#   247431
#
# Disc length: 3510 seconds
#
# Revision: 0
# Processed by: cddbd v1.5.1PL0 Copyright (c) Steve Scherf et al.
# Submitted via: uFREEDB ActiveX Control 1.5
#
DISCID=f70db410
DTITLE=Max e Michel - Faz uma Festa
DYEAR=1900
DGENRE=Alternative
TTITLE0=Dinheiro, cerveja e mulher
TTITLE1=Hotel Califórnia
TTITLE2=Teu segredo
TTITLE3=Faz uma festa
TTITLE4=Vida boa
TTITLE5=O mundo gira
TTITLE6=Aguenta coração
TTITLE7=Três companheiros
TTITLE8=Meto o pé na cara dela
TTITLE9=Fique à vontade
TTITLE10=Cena de amor trocada
TTITLE11=Madrugada
TTITLE12=Chega de sofrer
TTITLE13=Se ela telefonar
TTITLE14=Desatino
TTITLE15=Ele tem mulher na rua
EXTD=
EXTT0=
EXTT1=
EXTT2=
EXTT3=
EXTT4=
EXTT5=
EXTT6=
EXTT7=
EXTT8=
EXTT9=
EXTT10=
EXTT11=
EXTT12=
EXTT13=
EXTT14=
EXTT15=
PLAYORDER=
